<!-- icon666.com - MILLIONS vector ICONS FREE --><svg id="Capa_1" enable-background="new 0 0 512 512" viewBox="0 0 512 512" xmlns="http://www.w3.org/2000/svg"><g><g><g><g><g><circle cx="256" cy="256" fill="#9055be" r="256"></circle></g></g></g></g><path d="m305.571 114.333-49.571-8.931-52.699 9.378-45.196 30.145v14.295l92.689 92.689-134.161 111.908 148.021 148.021c127.41-4.234 231.227-101.56 245.621-226.142l-141.428-141.428z" fill="#7847a1"></path><g><path d="m160.535 382.023c-34.261 0-62.036-27.774-62.036-62.036s27.774-62.036 62.036-62.036h95.465l35.812 66.105-35.812 57.967z" fill="#fff"></path><path d="m351.465 257.952c34.261 0 62.036 27.774 62.036 62.036s-27.774 62.036-62.036 62.036h-95.465v-124.072z" fill="#d9d9dd"></path><g><g fill="#79b6fc"><path d="m269.315 252.218-13.315 26.63c-14.707 0-26.63-11.923-26.63-26.63s11.923-26.63 26.63-26.63z"></path><path d="m256 180.574c-20.996 0-39.91 9.078-53.026 23.515l14.982 14.982c9.264-10.619 22.878-17.348 38.044-17.348l9.277-9.232z"></path><path d="m256 138.275c-32.657 0-62.145 13.814-82.939 35.901l14.956 14.956c16.957-18.261 41.157-29.708 67.983-29.708l9.277-9.677z"></path><path d="m256 95.977c-44.319 0-84.385 18.55-112.847 48.292l14.951 14.951c24.629-25.914 59.408-42.094 97.896-42.094l9.277-11.458z"></path></g><path d="m282.63 252.218c0 14.707-11.923 26.63-26.63 26.63v-53.259c14.707-.001 26.63 11.922 26.63 26.629z" fill="#55a4fc"></path><path d="m353.895 159.22 14.952-14.952c-28.462-29.741-68.528-48.291-112.847-48.291v21.149c38.488 0 73.266 16.18 97.895 42.094z" fill="#55a4fc"></path><path d="m323.983 189.133 14.956-14.956c-20.794-22.087-50.282-35.901-82.939-35.901v21.149c26.826 0 51.026 11.447 67.983 29.708z" fill="#55a4fc"></path><path d="m294.043 219.072 14.982-14.982c-13.116-14.437-32.03-23.516-53.026-23.516v21.149c15.166 0 28.781 6.73 38.044 17.349z" fill="#55a4fc"></path></g><g><g><path d="m256 357.656h-7.507v-70.698h7.507l5.038 35.553z" fill="#5d6368"></path></g></g><g><g><path d="m342.359 286.958h15v70.698h-15z" fill="#474d52"></path></g></g><path d="m325.525 302.366v-15h-37.41v70.29h15v-28.168h20.63v-15h-20.63v-12.122z" fill="#474d52"></path><g><g><path d="m168.176 356.961-13.511-68.307 14.715-2.91 7.282 36.811 10.129-35.026 13.725.019 10.1 35.03 7.312-36.738 14.712 2.928-13.553 68.093-14.169.096-11.278-39.116-11.286 39.023z" fill="#5d6368"></path></g></g><path d="m256 286.958h7.492v70.698h-7.492z" fill="#474d52"></path></g></g></svg>